<?xml version="1.0" standalone="no"?><!DOCTYPE svg PUBLIC "-//W3C//DTD SVG 1.1//EN" "http://www.w3.org/Graphics/SVG/1.1/DTD/svg11.dtd"><svg t="1576053444130" class="icon" viewBox="0 0 1170 1024" version="1.1" xmlns="http://www.w3.org/2000/svg" p-id="8718" xmlns:xlink="http://www.w3.org/1999/xlink" width="228.515625" height="200"><defs><style type="text/css"></style></defs><path d="M349.622857 0v128H292.571429a73.142857 73.142857 0 0 0-63.634286 73.142857v194.56a77.531429 77.531429 0 0 1-14.628572 43.154286l-45.348571 68.754286L219.428571 585.142857a78.262857 78.262857 0 0 1 10.971429 39.497143v195.291429a73.142857 73.142857 0 0 0 63.63428599 73.14285701h58.51428501V1024H267.702857a179.2 179.2 0 0 1-163.84-190.902857V653.897143A73.142857 73.142857 0 0 0 56.32 585.142857L0 568.32V454.217143L56.32 438.857143a73.142857 73.142857 0 0 0 47.542857-73.14285701V190.902857A179.2 179.2 0 0 1 267.702857 0zM820.662857 1024v-128H877.71428599a73.142857 73.142857 0 0 0 63.63428501-73.142857V628.297143a77.531429 77.531429 0 0 1 14.628572-43.154286l45.34857101-68.754286L950.857143 438.857143a78.262857 78.262857 0 0 1-10.97142901-39.497143V202.60571399a73.142857 73.142857 0 0 0-63.63428499-73.14285699h-58.514286V0h81.92a179.2 179.2 0 0 1 163.84 190.902857v179.2a73.142857 73.142857 0 0 0 46.811428 73.14285701l56.32 16.09142899v110.445714l-52.66285701 15.36a73.142857 73.142857 0 0 0-47.54285699 73.14285701v177.73714299A179.2 179.2 0 0 1 902.582857 1024z" fill="#383F5C" p-id="8719"></path></svg>