<?xml version="1.0" standalone="no"?><!DOCTYPE svg PUBLIC "-//W3C//DTD SVG 1.1//EN" "http://www.w3.org/Graphics/SVG/1.1/DTD/svg11.dtd"><svg t="1576054709826" class="icon" viewBox="0 0 1024 1024" version="1.1" xmlns="http://www.w3.org/2000/svg" p-id="5208" xmlns:xlink="http://www.w3.org/1999/xlink" width="200" height="200"><defs><style type="text/css"></style></defs><path d="M512 1024a512 512 0 1 1 512-512 512 512 0 0 1-512 512z m0-950.857A438.857 438.857 0 1 0 950.857 512 438.857 438.857 0 0 0 512 73.143z" p-id="5209" fill="#383F5C"></path><path d="M658.286 694.857a34.377 34.377 0 0 1-25.6-10.971L486.4 537.6a34.377 34.377 0 0 1-10.971-25.6V182.857a36.571 36.571 0 0 1 73.142 0V496.64l135.315 136.046a35.109 35.109 0 0 1 0 51.2 34.377 34.377 0 0 1-25.6 10.971z" p-id="5210" fill="#383F5C"></path></svg>