<?xml version="1.0" standalone="no"?><!DOCTYPE svg PUBLIC "-//W3C//DTD SVG 1.1//EN" "http://www.w3.org/Graphics/SVG/1.1/DTD/svg11.dtd"><svg t="1576044691892" class="icon" viewBox="0 0 1024 1024" version="1.1" xmlns="http://www.w3.org/2000/svg" p-id="1765" xmlns:xlink="http://www.w3.org/1999/xlink" width="200" height="200"><defs><style type="text/css"></style></defs><path d="M150.4 226.133333c-18.133333 0-33.066667-14.933333-33.066667-33.066666s14.933333-33.066667 33.066667-33.066667 33.066667 14.933333 33.066667 33.066667-13.866667 33.066667-33.066667 33.066666z m0-56.533333c-12.8 0-22.4 9.6-22.4 22.4s9.6 22.4 22.4 22.4 22.4-9.6 22.4-22.4-9.6-22.4-22.4-22.4zM784 169.6h-42.666667c-3.2 0-5.333333-2.133333-5.333333-5.333333s2.133333-5.333333 5.333333-5.333334h42.666667c3.2 0 5.333333 2.133333 5.333333 5.333334s-2.133333 5.333333-5.333333 5.333333z" fill="#185A96" p-id="1766"></path><path d="M762.666667 190.933333c-3.2 0-5.333333-2.133333-5.333334-5.333333v-42.666667c0-3.2 2.133333-5.333333 5.333334-5.333333s5.333333 2.133333 5.333333 5.333333v42.666667c0 3.2-2.133333 5.333333-5.333333 5.333333z" fill="#185A96" p-id="1767"></path><path d="M843.733333 385.066667c-16 0-28.8-12.8-28.8-28.8s12.8-28.8 28.8-28.8c16 0 28.8 12.8 28.8 28.8s-13.866667 28.8-28.8 28.8z m0-46.933334c-9.6 0-18.133333 7.466667-18.133333 18.133334s7.466667 18.133333 18.133333 18.133333 18.133333-7.466667 18.133334-18.133333-8.533333-18.133333-18.133334-18.133334z" fill="#81B73B" p-id="1768"></path><path d="M313.6 137.6h-42.666667c-3.2 0-5.333333-2.133333-5.333333-5.333333s2.133333-5.333333 5.333333-5.333334h42.666667c3.2 0 5.333333 2.133333 5.333333 5.333334s-3.2 5.333333-5.333333 5.333333z" fill="#F4C94E" p-id="1769"></path><path d="M292.266667 158.933333c-3.2 0-5.333333-2.133333-5.333334-5.333333v-42.666667c0-3.2 2.133333-5.333333 5.333334-5.333333s5.333333 2.133333 5.333333 5.333333v42.666667c0 3.2-3.2 5.333333-5.333333 5.333333z" fill="#F4C94E" p-id="1770"></path><path d="M186.666667 374.4c-16 0-28.8-12.8-28.8-28.8s12.8-28.8 28.8-28.8 28.8 12.8 28.8 28.8-12.8 28.8-28.8 28.8z m0-45.866667c-9.6 0-18.133333 7.466667-18.133334 18.133334s7.466667 18.133333 18.133334 18.133333 18.133333-7.466667 18.133333-18.133333-8.533333-18.133333-18.133333-18.133334z" fill="#D190C5" p-id="1771"></path><path d="M583.466667 606.933333h277.333333c22.4 0 39.466667 18.133333 39.466667 39.466667 0 22.4-18.133333 39.466667-39.466667 39.466667H256c-22.4 0-39.466667-18.133333-39.466667-39.466667 0-22.4 18.133333-39.466667 39.466667-39.466667h273.066667" fill="#FF2400" p-id="1772"></path><path d="M534.4 899.2H315.733333c-28.8 0-52.266667-22.4-52.266666-49.066667l-19.2-131.2c0-10.666667 9.6-19.2 21.333333-19.2h263.466667" fill="#FF7F00" p-id="1773"></path><path d="M505.6 899.2h296.533333c28.8 0 52.266667-22.4 52.266667-49.066667l19.2-131.2c0-10.666667-9.6-19.2-21.333333-19.2h-341.333334" fill="#FF7F00" p-id="1774"></path><path d="M812.8 512l62.933333 11.733333c20.266667 4.266667 14.933333 18.133333-7.466666 18.133334l-113.066667-1.066667c-16 0-25.6 8.533333-17.066667 13.866667l33.066667 24.533333c10.666667 7.466667-6.4 17.066667-24.533333 13.866667l-131.2-26.666667c-9.6-2.133333-20.266667 0-25.6 4.266667l-48 42.666666c-7.466667 6.4-27.733333 6.4-35.2 0l-48-42.666666c-5.333333-4.266667-16-6.4-25.6-4.266667l-131.2 26.666667c-18.133333 3.2-35.2-5.333333-24.533334-13.866667l33.066667-24.533333c8.533333-6.4-1.066667-14.933333-17.066667-13.866667l-113.066666 1.066667c-22.4 0-27.733333-13.866667-7.466667-18.133334l62.933333-11.733333" fill="#4B9B2D" p-id="1775"></path><path d="M629.333333 521.6H512c-142.933333 0-260.266667 30.933333-260.266667-73.6v5.333333c0-104.533333 113.066667-196.266667 259.2-201.6h50.133334c17.066667 0 52.266667-1.066667 69.333333 0 151.466667 9.6 259.2 97.066667 259.2 201.6V448c0 104.533333-117.333333 73.6-260.266667 73.6z" fill="#FF7F00" p-id="1776"></path><path d="M467.2 612.266667h-26.666667c-3.2 0-5.333333-2.133333-5.333333-5.333334s2.133333-5.333333 5.333333-5.333333h26.666667c3.2 0 5.333333 2.133333 5.333333 5.333333s-2.133333 5.333333-5.333333 5.333334z" fill="#070100" p-id="1777"></path><path d="M800 692.266667H194.133333c-24.533333 0-44.8-20.266667-44.8-44.8s20.266667-44.8 44.8-44.8h113.066667c3.2 0 5.333333 2.133333 5.333333 5.333333s-2.133333 5.333333-5.333333 5.333333H194.133333c-19.2 0-34.133333 16-34.133333 34.133334s16 34.133333 34.133333 34.133333H800c19.2 0 34.133333-16 34.133333-34.133333s-16-34.133333-34.133333-34.133334H522.666667c-3.2 0-5.333333-2.133333-5.333334-5.333333s2.133333-5.333333 5.333334-5.333333h277.333333c24.533333 0 44.8 20.266667 44.8 44.8s-20.266667 44.8-44.8 44.8z" fill="#070100" p-id="1778"></path><path d="M297.6 533.333333c-45.866667 0-81.066667-5.333333-103.466667-26.666666-13.866667-13.866667-21.333333-32-22.4-56.533334v-5.333333c2.133333-65.066667 45.866667-126.933333 117.333334-166.4 5.333333-3.2 11.733333-1.066667 14.933333 4.266667 3.2 5.333333 1.066667 11.733333-4.266667 14.933333-65.066667 36.266667-104.533333 91.733333-105.6 150.4 0 20.266667 5.333333 34.133333 16 43.733333 25.6 24.533333 84.266667 21.333333 151.466667 18.133334 25.6-1.066667 53.333333-2.133333 82.133333-2.133334h58.666667c6.4 0 10.666667 4.266667 10.666667 10.666667s-4.266667 10.666667-10.666667 10.666667h-58.666667c-27.733333 0-54.4 1.066667-81.066666 2.133333-24.533333 1.066667-45.866667 2.133333-65.066667 2.133333zM704 533.333333c-19.2 0-40.533333-1.066667-64-2.133333h-11.733333c-6.4 0-10.666667-5.333333-10.666667-10.666667s5.333333-10.666667 10.666667-10.666666H640c68.266667 3.2 126.933333 5.333333 151.466667-18.133334 10.666667-9.6 14.933333-24.533333 16-43.733333-2.133333-98.133333-108.8-179.2-248.533334-188.8-11.733333-1.066667-32 0-49.066666 0h-69.333334c-5.333333 0-10.666667-4.266667-10.666666-10.666667s4.266667-10.666667 10.666666-10.666666h69.333334c18.133333 0 38.4-1.066667 51.2 0 153.6 9.6 265.6 97.066667 268.8 206.933333v5.333333c-1.066667 24.533333-8.533333 42.666667-22.4 56.533334-22.4 21.333333-57.6 26.666667-103.466667 26.666666zM243.2 688h222.933333v21.333333H243.2z" fill="" p-id="1779"></path><path d="M182.4 728.533333c-6.4 0-10.666667-4.266667-10.666667-10.666666 0-16 13.866667-29.866667 32-29.866667h40.533334c6.4 0 10.666667 4.266667 10.666666 10.666667s-4.266667 10.666667-10.666666 10.666666H202.666667c-5.333333 0-10.666667 4.266667-10.666667 8.533334 1.066667 6.4-4.266667 10.666667-9.6 10.666666zM472.533333 908.8H253.866667c-34.133333 0-62.933333-26.666667-62.933334-58.666667l-7.466666-50.133333c-1.066667-5.333333 3.2-11.733333 8.533333-11.733333 5.333333-1.066667 11.733333 3.2 11.733333 8.533333l7.466667 52.266667c0 21.333333 19.2 38.4 41.6 38.4h219.733333c6.4 0 10.666667 4.266667 10.666667 10.666666s-4.266667 10.666667-10.666667 10.666667zM740.266667 908.8H630.4v-21.333333h109.866667c23.466667 0 41.6-17.066667 41.6-38.4v-1.066667l19.2-130.133333c0-4.266667-5.333333-7.466667-10.666667-7.466667h-341.333333v-21.333333h341.333333c17.066667 0 32 13.866667 32 29.866666v1.066667l-19.2 130.133333c0 32-28.8 58.666667-62.933333 58.666667z" fill="" p-id="1780"></path><path d="M472.533333 887.466667h157.866667v21.333333H472.533333z" fill="" p-id="1781"></path><path d="M443.733333 887.466667h29.866667v21.333333h-29.866667z" fill="" p-id="1782"></path><path d="M497.066667 624c-8.533333 0-16-2.133333-21.333334-6.4l-48-42.666667c-3.2-3.2-11.733333-4.266667-20.266666-3.2l-131.2 26.666667c-13.866667 3.2-29.866667-1.066667-33.066667-9.6-2.133333-4.266667 0-9.6 4.266667-13.866667l33.066666-24.533333 1.066667-1.066667c-1.066667-1.066667-5.333333-4.266667-14.933333-4.266666l-113.066667 1.066666c-14.933333 0-24.533333-5.333333-25.6-13.866666 0-3.2 0-11.733333 17.066667-14.933334l62.933333-11.733333 2.133333 10.666667-62.933333 11.733333c-6.4 1.066667-8.533333 3.2-8.533333 3.2 0 1.066667 5.333333 4.266667 14.933333 4.266667l113.066667-1.066667c12.8 0 22.4 4.266667 24.533333 11.733333 1.066667 4.266667 0 9.6-4.266667 12.8l-33.066666 24.533334-1.066667 1.066666c1.066667 1.066667 9.6 5.333333 21.333333 3.2L405.333333 561.066667c11.733333-2.133333 23.466667 0 29.866667 5.333333l48 42.666667c5.333333 5.333333 22.4 5.333333 27.733333 0l48-42.666667c6.4-5.333333 19.2-7.466667 29.866667-5.333333l131.2 26.666666c10.666667 2.133333 19.2-1.066667 21.333333-3.2l-1.066666-1.066666-33.066667-24.533334c-4.266667-3.2-6.4-7.466667-4.266667-12.8 2.133333-7.466667 11.733333-11.733333 24.533334-11.733333l113.066666 1.066667c9.6 0 13.866667-3.2 14.933334-4.266667 0 0-2.133333-2.133333-8.533334-3.2l-62.933333-11.733333 2.133333-10.666667 62.933334 11.733333c17.066667 3.2 17.066667 11.733333 17.066666 14.933334-1.066667 8.533333-10.666667 13.866667-25.6 13.866666l-113.066666-1.066666c-8.533333 0-13.866667 3.2-14.933334 4.266666l1.066667 1.066667L746.666667 576c5.333333 3.2 6.4 8.533333 4.266666 12.8-3.2 8.533333-19.2 12.8-33.066666 9.6L586.666667 571.733333c-8.533333-2.133333-17.066667 0-20.266667 3.2l-48 42.666667c-5.333333 4.266667-12.8 6.4-21.333333 6.4z" fill="#070100" p-id="1783"></path><path d="M340.266667 400c-2.133333 0-4.266667-1.066667-5.333334-3.2-1.066667-3.2 0-5.333333 3.2-6.4l56.533334-21.333333-56.533334-23.466667c-3.2-1.066667-4.266667-4.266667-3.2-7.466667 1.066667-3.2 4.266667-4.266667 7.466667-3.2l60.8 24.533334c3.2 1.066667 5.333333 4.266667 5.333333 8.533333 0 3.2-2.133333 6.4-5.333333 8.533333l-60.8 23.466667h-2.133333zM653.866667 406.4h-2.133334l-60.8-23.466667c-3.2-1.066667-5.333333-4.266667-5.333333-8.533333 0-3.2 2.133333-7.466667 5.333333-8.533333l60.8-24.533334c3.2-1.066667 5.333333 0 7.466667 3.2 1.066667 3.2 0 5.333333-3.2 7.466667l-56.533333 23.466667 56.533333 21.333333c3.2 1.066667 4.266667 4.266667 3.2 6.4-1.066667 2.133333-3.2 3.2-5.333333 3.2z" fill="" p-id="1784"></path><path d="M494.933333 445.866667m-12.8 0a12.8 12.8 0 1 0 25.6 0 12.8 12.8 0 1 0-25.6 0Z" fill="" p-id="1785"></path><path d="M327.466667 285.866667c-4.266667 0-8.533333-3.2-10.666667-7.466667-2.133333-5.333333 1.066667-11.733333 6.4-13.866667 8.533333-3.2 51.2-16 62.933333-18.133333 5.333333-1.066667 10.666667 3.2 11.733334 9.6 1.066667 5.333333-3.2 10.666667-9.6 11.733333-7.466667 1.066667-39.466667 10.666667-58.666667 17.066667 0 0-1.066667 1.066667-2.133333 1.066667zM186.666667 774.4c-5.333333 0-9.6-4.266667-10.666667-9.6l-2.133333-19.2c-1.066667-5.333333 3.2-10.666667 9.6-11.733333 5.333333-1.066667 10.666667 3.2 11.733333 9.6l2.133333 19.2c1.066667 5.333333-3.2 10.666667-9.6 11.733333h-1.066666zM582.4 529.066667h-52.266667c-6.4 0-10.666667-4.266667-10.666666-10.666667s4.266667-10.666667 10.666666-10.666667h52.266667c6.4 0 10.666667 4.266667 10.666667 10.666667 0 5.333333-5.333333 10.666667-10.666667 10.666667z" fill="" p-id="1786"></path><path d="M379.733333 612.266667H330.666667c-3.2 0-5.333333-2.133333-5.333334-5.333334s2.133333-5.333333 5.333334-5.333333h49.066666c3.2 0 5.333333 2.133333 5.333334 5.333333s-2.133333 5.333333-5.333334 5.333334z" fill="#070100" p-id="1787"></path><path d="M720 358.4c-3.2 0-7.466667-2.133333-8.533333-5.333333-12.8-20.266667-50.133333-36.266667-64-40.533334-5.333333-2.133333-8.533333-7.466667-6.4-13.866666s7.466667-8.533333 13.866666-6.4c2.133333 1.066667 55.466667 18.133333 74.666667 49.066666 3.2 5.333333 2.133333 11.733333-3.2 14.933334-2.133333 1.066667-4.266667 2.133333-6.4 2.133333z" fill="#FFFFFF" p-id="1788"></path></svg>