<?xml version="1.0" standalone="no"?><!DOCTYPE svg PUBLIC "-//W3C//DTD SVG 1.1//EN" "http://www.w3.org/Graphics/SVG/1.1/DTD/svg11.dtd"><svg t="1576054729318" class="icon" viewBox="0 0 1049 1024" version="1.1" xmlns="http://www.w3.org/2000/svg" p-id="6103" xmlns:xlink="http://www.w3.org/1999/xlink" width="204.8828125" height="200"><defs><style type="text/css"></style></defs><path d="M118.202469 4.247704h152.879408v186.861037h72.198321V89.189136h327.009975V250.563951l-37.078914 157.139753 100.794469-44.322766 93.424198 201.462519V343.988148H674.537877V182.625975h152.892049V4.235062h157.139753v178.378271h63.702914v161.387457h-63.715556v662.515358H717.027556V857.884444h110.415012V666.763062l-93.424198 42.477037-118.53116-259.072-25.865482 97.684543L717.014914 794.168889l-127.405828 80.693728-74.68879-149.200592-73.955555 236.114173-148.442074-74.271605 123.158123-327.009976-97.874173-174.029432 123.158124-76.382815 48.570469 76.382815 23.627852-135.901234H360.271012v89.189135h-89.189135v101.932247l127.405827 106.167309-67.950618 131.653531-59.455209-55.207506v394.960592H118.202469V624.298667L46.396049 738.291358 6.864593 547.852642 118.202469 339.753086H24.76563V191.108741h93.424197z" p-id="6104" fill="#383F5C"></path></svg>