<?xml version="1.0" standalone="no"?><!DOCTYPE svg PUBLIC "-//W3C//DTD SVG 1.1//EN" "http://www.w3.org/Graphics/SVG/1.1/DTD/svg11.dtd"><svg t="1578470813814" class="icon" viewBox="0 0 1024 1024" version="1.1" xmlns="http://www.w3.org/2000/svg" p-id="2773" xmlns:xlink="http://www.w3.org/1999/xlink" width="200" height="200"><defs><style type="text/css"></style></defs><path d="M506.1 505.5m-396 0a396 396 0 1 0 792 0 396 396 0 1 0-792 0Z" fill="#4DAECB" p-id="2774"></path><path d="M518.8 513.5m-354.4 0a354.4 354.4 0 1 0 708.8 0 354.4 354.4 0 1 0-708.8 0Z" fill="#E8E8E8" p-id="2775"></path><path d="M874.3 329.6h-0.3l1.4 6.8z" fill="#7CCEE0" p-id="2776"></path><path d="M516.2 903.1c-96.4-20.1-180.1-75-237.3-151-62.7-60.8-101.6-145.9-101.6-240.1s38.9-179.3 101.6-240.1c57.2-76 140.9-130.8 237.3-151-13.4-2.8-27.1-4.9-41-6.3 8.3-0.8 16.7-1.4 25.1-1.8C287 121.1 116.7 296.7 116.7 512c0 99.7 32.5 190.8 92.8 260.8 70 81.2 176.2 134 290.8 138.4-8.4-0.3-16.8-0.9-25.1-1.8 13.9-1.4 27.6-3.5 41-6.3z" fill="#74C8E2" p-id="2777"></path><path d="M911.5 512c0-206.1-156-375.7-356.4-397.2-13.2 1.4-26.1 3.5-38.9 6.1 112.2 23.4 207.1 93.8 263.2 189.8 42.3 56 67.3 125.8 67.3 201.3s-25.1 145.3-67.3 201.3c-56.1 95.9-151 166.4-263.2 189.8 12.8 2.7 25.7 4.7 38.9 6.1C755.5 887.7 911.5 718.1 911.5 512z" fill="#4DAECB" p-id="2778"></path><path d="M219.6 273.8c-1.3 0.3-2.5 0.7-5.1 1.5 0.7-5.8 1.3-10.5 2.2-17.6 3.2 1.6 5.5 2.1 6.7 3.6 1.9 2.5 4.3 5.8 4.2 8.6-0.3 5.5-5 3.3-8 3.9zM157 418c-0.8-5.1 3.2-7.5 7.6-7.6 4.2-0.1 8.4 1 8.8 6.5 0.4 5.8-3.2 7.5-8.9 8-2.6-2.3-7.1-4.2-7.5-6.9zM341.2 193.1c10.5 2.3 11.8 4.4 11.1 18.2-10.5-4.6-10.5-4.6-11.1-18.2zM277.5 366.1c-4.9 0.7-9.9 1.7-14.8 1.9-4.2 0.1-5.7-3.9-2.9-8.1 1.2-1.9 3.3-2.9 5.4-4.7 4.5 3 8.7 5.8 12.8 8.6-0.1 0.7-0.3 1.5-0.5 2.3zM171.9 373.3c0.4 2.7-2.6 8.6-4.5 8.8-7.1 0.9-7.5-5.8-8.9-13.2 6.3-1.4 12-4.6 13.4 4.4zM144.7 477.9c4.2-1 8.7-0.2 13.1-0.1 0.2 1.5 0.3 3 0.4 4.5M312.7 260.8c-1.6 0.4-5.9-3.9-5.9-5.9 0.1-6.7 3.8-9.4 10-7 1.7 5.7 2.3 11.2-4.1 12.9zM264.5 264.2c1.4 6.1 2.4 10.5 3.7 16.5-9.9-5.1-10-5.4-3.7-16.5zM158.1 457.3c2.7 2 5.4 3.9 9.3 6.7-7.3 4.5-9.9 1.9-11.3-3.6 0.8-1 1.4-2.1 2-3.1zM278 207.6c2.4-0.3 4.8-0.9 7.1-0.7 0.5 0 0.8 3.2 1.2 4.8-2.5 0.2-4.9 0.4-7.4 0.6-0.3-1.5-0.6-3.1-0.9-4.7zM270.1 180.1c6.3 6.8 6.3 6.8-0.5 12.3 0.1-4.3 0.3-7.7 0.5-12.3zM458.3 136.6c-1 0.4-3 0.3-3.4-0.4-1.9-3.7-3.5-7.6-4.8-10.7 0.2-4.2 2.8-6.5 5.6-5.2 1.9 0.9 3.7 2.6 5.2 4.4 2.7 3.1 1 10.6-2.6 11.9zM536.6 201.8c-3.7 4.8-6.6 9.7-11.7 6.4-2-1.3-4-5.6-3.6-8 0.5-3.1 3-7.2 5.4-8.1 6.8-2.3 6.2 6.1 9.9 9.7zM662.3 186.7c10.5 2.3 11.8 4.4 11.1 18.2-10.5-4.6-10.5-4.6-11.1-18.2zM465.9 201.6c-0.6 3.1-3.7 7.6-5.9 7.7-2.4 0.1-4.9-4-8.8-7.6 3.6-2.9 5.7-5.6 8.1-6.3 3.9-1.1 7.5 1.1 6.6 6.2zM633.9 254.4c-1.6 0.4-5.9-3.9-5.9-5.9 0.1-6.7 3.8-9.4 10-7 1.7 5.8 2.3 11.3-4.1 12.9zM361.2 136.8c6.6-0.6 6.6-0.6 11.4 3.9-8.5 4.8-8.5 4.8-11.4-3.9zM629.7 142.6c-1.5 6.7-2.5 11.4-3.8 17.3-6.2-10.2-6.2-10.2 3.8-17.3zM401.7 188.9c-3.6-0.8-7.2-1.7-12.1-2.8 5.7-6.3 9.7-8.5 12.1 2.8zM599.1 201.2c2.4-0.3 4.8-0.9 7.1-0.7 0.5 0 0.8 3.2 1.2 4.8-2.5 0.2-4.9 0.4-7.4 0.6-0.3-1.5-0.6-3.1-0.9-4.7zM536.5 144.9c-0.2-0.8 1.2-2 1.9-3 1.4 1.5 3.2 2.7 4.1 4.5 0.4 0.7-1.3 2.7-2.9 5.8-1.5-3.5-2.7-5.3-3.1-7.3zM591.2 173.8c6.3 6.8 6.3 6.8-0.5 12.3 0.2-4.3 0.3-7.7 0.5-12.3zM863.8 462.5c6.4-1.8 11.4-3.3 16.4-4.7 1.1 1.2 2.2 2.3 3.3 3.5-7.1 4.6-6.9 9.8-3.8 15.8M744.4 299.7c-1.3 4.7-5.1 8.4-7.9 12.6-1.1-0.4-2.3-0.8-3.4-1.2-1-5.2-2.8-10.5-2.7-15.7 0-3.3 2.3-7.2 4.5-9.6 0.9-1 5.7 0.4 6.6 2.2 1.8 3.5 3.8 8.4 2.9 11.7zM813 411.4c-0.8-5.1 3.2-7.5 7.6-7.6 4.2-0.1 8.4 1 8.8 6.5 0.4 5.8-3.2 7.5-8.9 8-2.6-2.3-7.1-4.2-7.5-6.9zM827.9 366.7c0.4 2.7-2.6 8.6-4.5 8.8-7.1 0.9-7.5-5.8-8.9-13.2 6.3-1.4 12-4.6 13.4 4.4zM800.7 471.3c4.2-1 8.7-0.2 13.1-0.1 0.2 1.5 0.3 3 0.4 4.5M819.5 262.6c-3.2 2.3-6.4 3.9-9-0.2-0.7-1 0.6-5.3 1.7-5.9 4.3-1.9 6.5 0.9 7.3 6.1zM874.5 443.4c4.2 1.2 8.3 2.4 13.1 3.7-7 6.2-7 6.2-13.1-3.7zM736.6 188.6c-3.6-0.8-7.2-1.7-12.1-2.8 5.7-6.2 9.6-8.5 12.1 2.8zM814.1 450.7c2.7 2 5.4 3.9 9.3 6.7-7.3 4.5-9.9 1.9-11.3-3.6 0.8-1 1.4-2.1 2-3.1zM142.4 571.3c-1 0.4-3 0.3-3.4-0.4-1.9-3.7-3.5-7.6-4.8-10.7 0.2-4.2 2.8-6.5 5.6-5.2 1.9 0.9 3.7 2.6 5.2 4.4 2.6 3.2 1 10.6-2.6 11.9zM220.6 636.5c-3.7 4.8-6.6 9.7-11.7 6.4-2-1.3-4-5.6-3.6-8 0.5-3.1 3-7.2 5.4-8.1 6.9-2.3 6.3 6.1 9.9 9.7zM224.8 702.2c-1.3 0.3-2.5 0.7-5.1 1.5 0.7-5.8 1.3-10.5 2.2-17.6 3.2 1.6 5.5 2.1 6.7 3.6 1.9 2.5 4.3 5.8 4.2 8.6-0.3 5.5-5 3.3-8 3.9zM282.7 794.5c-4.9 0.7-9.9 1.7-14.8 1.9-4.2 0.1-5.7-3.9-2.9-8.1 1.2-1.9 3.3-2.9 5.4-4.7 4.5 3 8.7 5.8 12.8 8.6-0.1 0.7-0.3 1.5-0.5 2.3zM315.7 843.9c-1.7 0.7-5.3-0.1-5.6-1.2-1-3.4-1.6-7.5-0.8-10.9 0.6-2.5 3.6-4.2 7.8-8.6 1 6.3 1.3 8.6 1.8 10.9 0.6 4 1 8.1-3.2 9.8zM149.9 636.3c-0.6 3.1-3.7 7.6-5.9 7.7-2.4 0.1-4.9-4-8.8-7.6 3.6-2.9 5.7-5.6 8.1-6.3 4-1 7.6 1.1 6.6 6.2zM327.2 744.5c-3.3 5.5-6.1 10.2-8.9 14.8-2.8-14.3-2.8-14.3 8.9-14.8zM269.6 692.6c1.4 6.1 2.4 10.5 3.7 16.5-9.8-5.2-9.9-5.5-3.7-16.5zM168.7 697.6c-3.2 2.3-6.4 3.9-9-0.2-0.7-1 0.6-5.3 1.7-5.9 4.3-1.9 6.5 0.8 7.3 6.1zM220.6 579.6c-0.2-0.8 1.2-2 1.9-3 1.4 1.5 3.2 2.7 4.1 4.5 0.4 0.7-1.3 2.7-2.9 5.8-1.6-3.5-2.7-5.3-3.1-7.3zM534.1 891.1c6.4-1.8 11.4-3.3 16.4-4.7 1.1 1.2 2.2 2.3 3.3 3.5-7.1 4.6-6.9 9.8-3.8 15.8M634.8 872.6c2-10.9 6.9-14.5 21.9-15.2-6.5 15.5-9.4 17.4-21.9 15.2zM483.3 840c-0.8-5.1 3.2-7.5 7.6-7.6 4.2-0.1 8.4 1 8.8 6.5 0.4 5.8-3.2 7.5-8.9 8-2.6-2.3-7-4.2-7.5-6.9zM603.9 788.2c-4.9 0.7-9.9 1.7-14.8 1.9-4.2 0.1-5.7-3.9-2.9-8.1 1.2-1.9 3.3-2.9 5.4-4.7 4.5 3 8.7 5.8 12.8 8.6-0.1 0.6-0.3 1.5-0.5 2.3zM498.2 795.3c0.4 2.7-2.6 8.6-4.5 8.8-7.1 0.9-7.5-5.8-8.9-13.2 6.3-1.3 12.1-4.6 13.4 4.4zM636.9 837.5c-1.7 0.7-5.3-0.1-5.6-1.2-1-3.4-1.6-7.5-0.8-10.9 0.6-2.5 3.6-4.2 7.8-8.6 1 6.3 1.3 8.6 1.8 10.9 0.6 4 1 8.2-3.2 9.8zM471 899.9c4.2-1 8.7-0.2 13.1-0.1 0.2 1.5 0.3 3 0.4 4.5M544.8 872c4.2 1.2 8.3 2.4 13.1 3.7-7 6.2-7 6.2-13.1-3.7zM484.5 879.3c2.7 2 5.4 3.9 9.3 6.7-7.3 4.5-9.9 1.9-11.3-3.6 0.7-1 1.3-2 2-3.1zM391 816.6c3.9 2.9 7.1 5.3 12.6 9.4-10.7-1.5-10.7-1.5-12.6-9.4zM587.5 903.4c0.8 1 1.6 2 2.5 3M407.7 862.6c0.8-1.6 2.2-2.9 3.3-4.3 0.4 0.4 0.9 0.8 1.3 1.2-0.8 2.9-1.6 5.9-2.4 8.8-1.1-0.3-2.2-0.5-3.2-0.8 0.2-1.7 0.3-3.5 1-4.9z" fill="#09A7AF" p-id="2779"></path><path d="M798.4 564.7c-1 0.4-3 0.3-3.4-0.4-1.9-3.7-3.5-7.6-4.8-10.7 0.2-4.2 2.8-6.5 5.6-5.2 1.9 0.9 3.7 2.6 5.2 4.4 2.6 3.2 1 10.6-2.6 11.9zM876.6 629.9c-3.7 4.8-6.6 9.7-11.7 6.4-2-1.3-4-5.6-3.6-8 0.5-3.1 3-7.2 5.4-8.1 6.9-2.3 6.3 6.1 9.9 9.7zM902.1 524.4c-2.6 3.4-4.6 6.9-8.2 4.5-1.4-0.9-2.8-3.9-2.5-5.6 0.4-2.2 2.1-5.1 3.8-5.7 4.8-1.7 4.4 4.2 6.9 6.8zM749.6 728.1c-1.3 4.7-5.1 8.4-7.9 12.6-1.1-0.4-2.3-0.8-3.4-1.2-1-5.2-2.8-10.5-2.7-15.7 0-3.3 2.3-7.2 4.5-9.6 0.9-1 5.7 0.4 6.6 2.2 1.8 3.4 3.8 8.4 2.9 11.7zM805.9 629.7c-0.6 3.1-3.7 7.6-5.9 7.7-2.4 0.1-4.9-4-8.8-7.6 3.6-2.9 5.7-5.6 8.1-6.3 4-1 7.6 1.2 6.6 6.2zM745.6 511.6c4.5 4.1 6.9 6.3 10 9.1-3.5 3.4-6.1 5.8-8.6 8.2M824.7 691c-3.2 2.3-6.4 3.9-9-0.2-0.7-1 0.6-5.3 1.7-5.9 4.3-1.9 6.5 0.9 7.3 6.1zM725.9 816.4c3.9 2.9 7.1 5.3 12.6 9.4-10.8-1.5-10.8-1.5-12.6-9.4zM876.6 573.1c-0.2-0.8 1.2-2 1.9-3 1.4 1.5 3.2 2.7 4.1 4.5 0.4 0.7-1.3 2.7-2.9 5.8-1.6-3.6-2.7-5.4-3.1-7.3z" fill="#09A7AF" p-id="2780"></path><path d="M512 846.7c-90.6 0-172.8-36-233.1-94.6 57.2 76 140.9 130.8 237.3 151 112.2-23.4 207.1-93.8 263.2-189.8-61.1 81-158.1 133.4-267.4 133.4z" fill="#54BDDD" p-id="2781"></path><path d="M509.9 911.5c-1.3 0-2.7 0-4-0.1h-0.7c-1.5 0-3-0.1-4.4-0.1h-0.4C287 902.9 116.7 727.3 116.7 512S287 121.1 500.3 112.8h0.4c1.5-0.1 3-0.1 4.4-0.1h0.7c1.3 0 2.7-0.1 4-0.1h4.3-2.1c-220.7 0-399.5 178.9-399.5 399.5S291.3 911.5 512 911.5h2.1-4.2z" fill="#74C8E2" p-id="2782"></path><path d="M278.9 271.9c60.3-58.5 142.5-94.6 233.1-94.6 109.3 0 206.3 52.4 267.4 133.4-56.1-95.9-151-166.4-263.2-189.8-96.4 20.1-180.1 75-237.3 151z" fill="#54BDDD" p-id="2783"></path><path d="M512 177.3c-90.6 0-172.8 36-233.1 94.6-50.3 66.8-80.2 150-80.2 240.1s29.8 173.3 80.2 240.1c60.3 58.5 142.5 94.6 233.1 94.6 109.3 0 206.3-52.4 267.4-133.4 34.6-59.1 54.4-127.9 54.4-201.3S814 369.8 779.4 310.7c-61.1-81-158.1-133.4-267.4-133.4z" fill="#E8E8E8" p-id="2784"></path><path d="M527.3 911.4h-0.7 0.7zM532.1 911.2h-0.4 0.4zM514.1 911.5h2.1-2.1zM521.4 112.5h1.2-1.2zM516.2 112.5h-2.1 2.1zM526.6 112.6h0.7-0.7zM521.4 911.5h1.2-1.2zM531.7 112.8h0.4-0.4zM505.9 112.6c1.3 0 2.7-0.1 4-0.1-1.4 0-2.7 0.1-4 0.1zM505.2 911.4c-1.5 0-3-0.1-4.4-0.1 1.4 0 2.9 0 4.4 0.1zM509.9 911.5c-1.3 0-2.7 0-4-0.1 1.3 0 2.6 0.1 4 0.1zM500.7 112.8c1.5-0.1 3-0.1 4.4-0.1-1.4 0-2.9 0-4.4 0.1zM514.1 112.5H511h3.1zM511 911.5h3.1-3.1z" fill="#54BDDD" p-id="2785"></path><path d="M278.9 271.9C216.2 332.7 177.3 417.8 177.3 512s38.9 179.3 101.6 240.1c-50.3-66.8-80.2-150-80.2-240.1s29.8-173.3 80.2-240.1z" fill="#F2F0F0" p-id="2786"></path><path d="M531.7 911.2c-1.5 0.1-3 0.1-4.4 0.1 1.5 0 2.9 0 4.4-0.1zM555.1 114.8C755.5 136.3 911.5 305.9 911.5 512s-156 375.7-356.4 397.2c0.7 0.1 1.4 0.2 2.1 0.2-8.3 0.8-16.7 1.4-25.1 1.8 213.3-8.3 383.6-183.9 383.6-399.2S745.4 121.1 532.1 112.8c8.4 0.3 16.8 0.9 25.1 1.8-0.7 0-1.4 0.1-2.1 0.2zM516.2 112.5h5.2-5.2zM522.6 112.5c1.3 0 2.7 0 4 0.1-1.4 0-2.7-0.1-4-0.1zM516.2 911.5h5.2-5.2zM527.3 112.6c1.5 0 3 0.1 4.4 0.1-1.5 0-2.9 0-4.4-0.1zM526.6 911.4c-1.3 0-2.7 0.1-4 0.1 1.3 0 2.6-0.1 4-0.1zM509.9 112.5h1.2-1.2zM500.7 911.2h-0.4 0.4zM505.2 112.6h0.7-0.7zM500.3 112.8h0.4-0.4zM511 911.5h-1.2 1.2zM505.9 911.4h-0.7 0.7z" fill="#54BDDD" p-id="2787"></path><path d="M779.4 713.3c42.3-56 67.3-125.8 67.3-201.3s-25.1-145.3-67.3-201.3c34.6 59.1 54.4 127.9 54.4 201.3s-19.9 142.2-54.4 201.3z" fill="#D5D5D5" p-id="2788"></path><path d="M526.6 911.4h0.7c1.5 0 3-0.1 4.4-0.1h0.4c8.4-0.3 16.8-0.9 25.1-1.8-0.7-0.1-1.4-0.2-2.1-0.2-13.5 1.4-27.2 2.2-41 2.3h8.5c1.3-0.1 2.6-0.2 4-0.2zM555.1 114.8c0.7-0.1 1.4-0.2 2.1-0.2-8.3-0.8-16.7-1.4-25.1-1.8h-0.4c-1.5-0.1-3-0.1-4.4-0.1h-0.7c-1.3 0-2.7-0.1-4-0.1h-8.5c13.9 0 27.5 0.7 41 2.2z" fill="#54BDDD" p-id="2789"></path><path d="M475.2 909.4c8.3 0.8 16.7 1.4 25.1 1.8h0.4c1.5 0.1 3 0.1 4.4 0.1h0.7c1.3 0 2.7 0.1 4 0.1h4.3c13.8-0.1 27.5-0.8 41-2.3-13.2-1.4-26.1-3.5-38.9-6.1-13.4 2.9-27.1 5-41 6.4zM516.2 120.9c12.8-2.7 25.7-4.7 38.9-6.1-13.5-1.4-27.2-2.2-41-2.3h-4.3c-1.3 0-2.7 0-4 0.1h-0.7c-1.5 0-3 0.1-4.4 0.1h-0.4c-8.4 0.3-16.8 0.9-25.1 1.8 13.9 1.5 27.6 3.6 41 6.4z" fill="#54BDDD" p-id="2790"></path><path d="M512 923.5c-56.6 0-111.5-11.3-163.1-33.6-49.8-21.5-94.3-52.3-132.3-91.4-4.6-4.8-4.5-12.4 0.3-17s12.4-4.5 17 0.3c73.6 75.9 172.4 117.7 278.1 117.7 213.7 0 387.5-173.8 387.5-387.5S725.7 124.5 512 124.5 124.5 298.3 124.5 512c0 85.2 27.1 166 78.4 233.7 4 5.3 3 12.8-2.3 16.8s-12.8 3-16.8-2.3c-26.5-35-47.1-73.7-61.2-115-14.6-42.8-22-87.6-22-133.2 0-55.6 10.9-109.4 32.3-160.2 20.7-49 50.4-93 88.2-130.8 37.8-37.8 81.8-67.5 130.8-88.2 50.7-21.5 104.6-32.3 160.2-32.3s109.4 10.9 160.2 32.3c49 20.7 93 50.4 130.8 88.2 37.8 37.8 67.5 81.8 88.2 130.8 21.5 50.7 32.3 104.6 32.3 160.2s-10.9 109.4-32.3 160.2c-20.7 49-50.4 93-88.2 130.8-37.8 37.8-81.8 67.5-130.8 88.2-50.9 21.4-104.7 32.3-160.3 32.3z" fill="#3D6072" p-id="2791"></path><path d="M512 768.1c-68.4 0-132.7-26.6-181.1-75-48.4-48.4-75-112.7-75-181.1s26.6-132.7 75-181.1c48.4-48.4 112.7-75 181.1-75 45.5 0 90.2 12.1 129.3 35 2.9 1.7 3.8 5.4 2.1 8.2-1.7 2.9-5.4 3.8-8.2 2.1-37.2-21.8-79.8-33.3-123.2-33.3-134.6 0-244.1 109.5-244.1 244.1S377.4 756.1 512 756.1 756.1 646.6 756.1 512c0-70.8-30.7-138-84.1-184.4-2.5-2.2-2.8-6-0.6-8.5 2.2-2.5 6-2.8 8.5-0.6 56.1 48.7 88.3 119.2 88.3 193.4 0 68.4-26.6 132.7-75 181.1-48.5 48.4-112.8 75.1-181.2 75.1z" fill="#3D6072" p-id="2792"></path><path d="M504.262 147.768l10.04-10.04 10.041 10.04-10.04 10.041z" fill="#E8E8E8" p-id="2793"></path><path d="M504.234 872.374l10.041-10.041 10.04 10.04-10.04 10.042z" fill="#E8E8E8" p-id="2794"></path><path d="M865.55 511.085l10.041-10.041 10.041 10.04-10.04 10.042z" fill="#E8E8E8" p-id="2795"></path><path d="M139.945 511.057l10.041-10.04 10.04 10.04-10.04 10.041z" fill="#E8E8E8" p-id="2796"></path><path d="M291.303623 297.328425a2.6 2.6 0 1 0 4.991472-1.457811 2.6 2.6 0 1 0-4.991472 1.457811Z" fill="#686767" p-id="2797"></path><path d="M328.002862 248.827104a2.6 2.6 0 1 0 4.991472-1.457812 2.6 2.6 0 1 0-4.991472 1.457812Z" fill="#686767" p-id="2798"></path><path d="M258.755005 395.110471a2.6 2.6 0 1 0 0.665057-5.157296 2.6 2.6 0 1 0-0.665057 5.157296Z" fill="#AEAFAF" p-id="2799"></path><path d="M227.019724 487.128983a2.6 2.6 0 1 0 4.991471-1.457812 2.6 2.6 0 1 0-4.991471 1.457812Z" fill="#686767" p-id="2800"></path><path d="M241.586675 685.256486a2.6 2.6 0 1 0 0.665056-5.157296 2.6 2.6 0 1 0-0.665056 5.157296Z" fill="#686767" p-id="2801"></path><path d="M213.86294 647.005495a2.6 2.6 0 1 0 0.665057-5.157296 2.6 2.6 0 1 0-0.665057 5.157296Z" fill="#686767" p-id="2802"></path><path d="M275.380068 749.457842a2.6 2.6 0 1 0 1.458073-4.991395 2.6 2.6 0 1 0-1.458073 4.991395Z" fill="#AEAFAF" p-id="2803"></path><path d="M267.116078 622.161876a2.6 2.6 0 1 0 1.458073-4.991395 2.6 2.6 0 1 0-1.458073 4.991395Z" fill="#AEAFAF" p-id="2804"></path><path d="M271.827794 544.14121a2.6 2.6 0 1 0 5.157366-0.664517 2.6 2.6 0 1 0-5.157366 0.664517Z" fill="#AEAFAF" p-id="2805"></path><path d="M272.918549 681.649117a2.6 2.6 0 1 0 5.157366-0.664516 2.6 2.6 0 1 0-5.157366 0.664516Z" fill="#AEAFAF" p-id="2806"></path><path d="M224.77156 597.976917a2.6 2.6 0 1 0 3.409109-3.926573 2.6 2.6 0 1 0-3.409109 3.926573Z" fill="#686767" p-id="2807"></path><path d="M218.409665 530.250313a2.6 2.6 0 1 0 4.912426-1.705306 2.6 2.6 0 1 0-4.912426 1.705306Z" fill="#AEAFAF" p-id="2808"></path><path d="M345.528336 494.237192a2.6 2.6 0 1 0 4.991472-1.457812 2.6 2.6 0 1 0-4.991472 1.457812Z" fill="#686767" p-id="2809"></path><path d="M340.794113 420.000946a2.6 2.6 0 1 0 0.665057-5.157296 2.6 2.6 0 1 0-0.665057 5.157296Z" fill="#AEAFAF" p-id="2810"></path><path d="M305.122405 471.217728a2.6 2.6 0 1 0 4.991472-1.457811 2.6 2.6 0 1 0-4.991472 1.457811Z" fill="#686767" p-id="2811"></path><path d="M332.139356 602.484308a2.6 2.6 0 1 0 3.409109-3.926573 2.6 2.6 0 1 0-3.409109 3.926573Z" fill="#686767" p-id="2812"></path><path d="M322.26447 729.571035a2.6 2.6 0 1 0 1.458073-4.991395 2.6 2.6 0 1 0-1.458073 4.991395Z" fill="#AEAFAF" p-id="2813"></path><path d="M353.473598 733.519211a2.6 2.6 0 1 0 1.458073-4.991394 2.6 2.6 0 1 0-1.458073 4.991394Z" fill="#AEAFAF" p-id="2814"></path><path d="M349.93008 528.236829a2.6 2.6 0 1 0 5.157365-0.664517 2.6 2.6 0 1 0-5.157365 0.664517Z" fill="#AEAFAF" p-id="2815"></path><path d="M351.021028 665.74575a2.6 2.6 0 1 0 5.157365-0.664516 2.6 2.6 0 1 0-5.157365 0.664516Z" fill="#AEAFAF" p-id="2816"></path><path d="M302.874277 582.052873a2.6 2.6 0 1 0 3.409109-3.926573 2.6 2.6 0 1 0-3.409109 3.926573Z" fill="#686767" p-id="2817"></path><path d="M296.418408 514.376157a2.6 2.6 0 1 0 4.912426-1.705306 2.6 2.6 0 1 0-4.912426 1.705306Z" fill="#AEAFAF" p-id="2818"></path><path d="M345.140973 294.967967a2.6 2.6 0 1 0 4.912426-1.705306 2.6 2.6 0 1 0-4.912426 1.705306Z" fill="#AEAFAF" p-id="2819"></path><path d="M385.659979 684.73511a2.6 2.6 0 1 0 4.276079-2.958911 2.6 2.6 0 1 0-4.276079 2.958911Z" fill="#686767" p-id="2820"></path><path d="M405.163569 627.144605a2.6 2.6 0 1 0 4.276079-2.95891 2.6 2.6 0 1 0-4.276079 2.95891Z" fill="#686767" p-id="2821"></path><path d="M382.522753 785.809312a2.6 2.6 0 1 0 5.103663-0.996304 2.6 2.6 0 1 0-5.103663 0.996304Z" fill="#AEAFAF" p-id="2822"></path><path d="M468.232469 783.513788a2.6 2.6 0 1 0 5.103663-0.996305 2.6 2.6 0 1 0-5.103663 0.996305Z" fill="#AEAFAF" p-id="2823"></path><path d="M429.925719 730.015987a2.6 2.6 0 1 0 5.103664-0.996304 2.6 2.6 0 1 0-5.103664 0.996304Z" fill="#AEAFAF" p-id="2824"></path><path d="M414.150015 809.242568a2.6 2.6 0 1 0 1.995319-4.801948 2.6 2.6 0 1 0-1.995319 4.801948Z" fill="#686767" p-id="2825"></path><path d="M435.936009 665.495223a2.6 2.6 0 1 0 4.123226-3.168439 2.6 2.6 0 1 0-4.123226 3.168439Z" fill="#AEAFAF" p-id="2826"></path><path d="M400.604656 575.492964a2.6 2.6 0 1 0 4.123226-3.168439 2.6 2.6 0 1 0-4.123226 3.168439Z" fill="#AEAFAF" p-id="2827"></path><path d="M504.910796 699.68083a2.6 2.6 0 1 0 1.458073-4.991395 2.6 2.6 0 1 0-1.458073 4.991395Z" fill="#686767" p-id="2828"></path><path d="M431.519827 553.049035a2.6 2.6 0 1 0 5.157366-0.664516 2.6 2.6 0 1 0-5.157366 0.664516Z" fill="#AEAFAF" p-id="2829"></path><path d="M403.889195 461.412017a2.6 2.6 0 1 0 1.458073-4.991395 2.6 2.6 0 1 0-1.458073 4.991395Z" fill="#686767" p-id="2830"></path><path d="M414.422363 262.936554a2.6 2.6 0 1 0 5.157365-0.664517 2.6 2.6 0 1 0-5.157365 0.664517Z" fill="#686767" p-id="2831"></path><path d="M448.718922 199.125379a2.6 2.6 0 1 0 4.991472-1.457812 2.6 2.6 0 1 0-4.991472 1.457812Z" fill="#AEAFAF" p-id="2832"></path><path d="M440.428811 326.406513a2.6 2.6 0 1 0 4.991472-1.457812 2.6 2.6 0 1 0-4.991472 1.457812Z" fill="#AEAFAF" p-id="2833"></path><path d="M449.173491 404.101493a2.6 2.6 0 1 0 0.665057-5.157295 2.6 2.6 0 1 0-0.665057 5.157295Z" fill="#AEAFAF" p-id="2834"></path><path d="M399.624182 350.962961a2.6 2.6 0 1 0 3.926513-3.409177 2.6 2.6 0 1 0-3.926513 3.409177Z" fill="#686767" p-id="2835"></path><path d="M371.419723 250.122976a2.6 2.6 0 1 0 4.991471-1.457812 2.6 2.6 0 1 0-4.991471 1.457812Z" fill="#AEAFAF" p-id="2836"></path><path d="M395.086406 418.366979a2.6 2.6 0 1 0 1.705049-4.912516 2.6 2.6 0 1 0-1.705049 4.912516Z" fill="#AEAFAF" p-id="2837"></path><path d="M522.37311 454.35856a2.6 2.6 0 1 0 1.458073-4.991394 2.6 2.6 0 1 0-1.458073 4.991394Z" fill="#686767" p-id="2838"></path><path d="M513.623831 528.245442a2.6 2.6 0 1 0 5.157366-0.664517 2.6 2.6 0 1 0-5.157366 0.664517Z" fill="#AEAFAF" p-id="2839"></path><path d="M494.222016 591.039143a2.6 2.6 0 1 0 5.157365-0.664517 2.6 2.6 0 1 0-5.157365 0.664517Z" fill="#AEAFAF" p-id="2840"></path><path d="M507.038391 346.432999a2.6 2.6 0 1 0 3.926513-3.409177 2.6 2.6 0 1 0-3.926513 3.409177Z" fill="#686767" p-id="2841"></path><path d="M492.521408 278.833664a2.6 2.6 0 1 0 5.157365-0.664517 2.6 2.6 0 1 0-5.157365 0.664517Z" fill="#686767" p-id="2842"></path><path d="M495.624488 219.016286a2.6 2.6 0 1 0 4.991471-1.457812 2.6 2.6 0 1 0-4.991471 1.457812Z" fill="#AEAFAF" p-id="2843"></path><path d="M526.815316 215.016168a2.6 2.6 0 1 0 4.991471-1.457812 2.6 2.6 0 1 0-4.991471 1.457812Z" fill="#AEAFAF" p-id="2844"></path><path d="M523.609831 314.927823a2.6 2.6 0 1 0 4.991471-1.457811 2.6 2.6 0 1 0-4.991471 1.457811Z" fill="#AEAFAF" p-id="2845"></path><path d="M528.375167 282.475399a2.6 2.6 0 1 0 0.665056-5.157296 2.6 2.6 0 1 0-0.665056 5.157296Z" fill="#AEAFAF" p-id="2846"></path><path d="M477.630756 366.910561a2.6 2.6 0 1 0 3.926514-3.409178 2.6 2.6 0 1 0-3.926514 3.409178Z" fill="#686767" p-id="2847"></path><path d="M473.152072 434.248719a2.6 2.6 0 1 0 1.705049-4.912516 2.6 2.6 0 1 0-1.705049 4.912516Z" fill="#AEAFAF" p-id="2848"></path><path d="M454.03584 524.44217a2.6 2.6 0 1 0 3.926513-3.409177 2.6 2.6 0 1 0-3.926513 3.409177Z" fill="#686767" p-id="2849"></path><path d="M521.792903 653.649551a2.6 2.6 0 1 0 1.705049-4.912516 2.6 2.6 0 1 0-1.705049 4.912516Z" fill="#AEAFAF" p-id="2850"></path><path d="M516.676646 750.122699a2.6 2.6 0 1 0 1.705049-4.912515 2.6 2.6 0 1 0-1.705049 4.912515Z" fill="#AEAFAF" p-id="2851"></path><path d="M822.924807 622.812521a2.6 2.6 0 1 0 4.991472-1.457811 2.6 2.6 0 1 0-4.991472 1.457811Z" fill="#AEAFAF" p-id="2852"></path><path d="M818.487324 548.817225a2.6 2.6 0 1 0 0.665057-5.157296 2.6 2.6 0 1 0-0.665057 5.157296Z" fill="#AEAFAF" p-id="2853"></path><path d="M744.420579 498.388489a2.6 2.6 0 1 0 1.458073-4.991395 2.6 2.6 0 1 0-1.458073 4.991395Z" fill="#686767" p-id="2854"></path><path d="M768.933634 357.446225a2.6 2.6 0 1 0 5.157365-0.664517 2.6 2.6 0 1 0-5.157365 0.664517Z" fill="#AEAFAF" p-id="2855"></path><path d="M784.941743 475.498111a2.6 2.6 0 1 0 1.458073-4.991394 2.6 2.6 0 1 0-1.458073 4.991394Z" fill="#686767" p-id="2856"></path><path d="M770.622473 669.550277a2.6 2.6 0 1 0 5.157366-0.664517 2.6 2.6 0 1 0-5.157366 0.664517Z" fill="#686767" p-id="2857"></path><path d="M736.531778 734.219249a2.6 2.6 0 1 0 4.991471-1.457812 2.6 2.6 0 1 0-4.991471 1.457812Z" fill="#AEAFAF" p-id="2858"></path><path d="M740.424517 532.935521a2.6 2.6 0 1 0 0.665056-5.157295 2.6 2.6 0 1 0-0.665056 5.157295Z" fill="#AEAFAF" p-id="2859"></path><path d="M739.274072 670.434154a2.6 2.6 0 1 0 0.665057-5.157296 2.6 2.6 0 1 0-0.665057 5.157296Z" fill="#AEAFAF" p-id="2860"></path><path d="M793.40337 518.402263a2.6 2.6 0 1 0 1.705049-4.912515 2.6 2.6 0 1 0-1.705049 4.912515Z" fill="#AEAFAF" p-id="2861"></path><path d="M810.331932 426.687709a2.6 2.6 0 1 0 3.926513-3.409178 2.6 2.6 0 1 0-3.926513 3.409178Z" fill="#686767" p-id="2862"></path><path d="M744.66874 298.969587a2.6 2.6 0 1 0 1.705049-4.912516 2.6 2.6 0 1 0-1.705049 4.912516Z" fill="#AEAFAF" p-id="2863"></path><path d="M684.467556 630.407739a2.6 2.6 0 1 0 2.95891-4.276079 2.6 2.6 0 1 0-2.95891 4.276079Z" fill="#686767" p-id="2864"></path><path d="M621.894629 787.933067a2.6 2.6 0 1 0 0.996305-5.103663 2.6 2.6 0 1 0-0.996305 5.103663Z" fill="#AEAFAF" p-id="2865"></path><path d="M660.230133 734.474172a2.6 2.6 0 1 0 0.996305-5.103663 2.6 2.6 0 1 0-0.996305 5.103663Z" fill="#AEAFAF" p-id="2866"></path><path d="M688.915159 578.500351a2.6 2.6 0 1 0 3.168439-4.123226 2.6 2.6 0 1 0-3.168439 4.123226Z" fill="#AEAFAF" p-id="2867"></path><path d="M621.812915 651.82538a2.6 2.6 0 1 0 4.991471-1.457812 2.6 2.6 0 1 0-4.991471 1.457812Z" fill="#686767" p-id="2868"></path><path d="M585.113676 700.326701a2.6 2.6 0 1 0 4.991471-1.457811 2.6 2.6 0 1 0-4.991471 1.457811Z" fill="#686767" p-id="2869"></path><path d="M658.727834 557.72557a2.6 2.6 0 1 0 0.665056-5.157296 2.6 2.6 0 1 0-0.665056 5.157296Z" fill="#AEAFAF" p-id="2870"></path><path d="M686.132136 462.107754a2.6 2.6 0 1 0 4.991471-1.457812 2.6 2.6 0 1 0-4.991471 1.457812Z" fill="#686767" p-id="2871"></path><path d="M675.885119 267.680717a2.6 2.6 0 1 0 0.665057-5.157296 2.6 2.6 0 1 0-0.665057 5.157296Z" fill="#686767" p-id="2872"></path><path d="M703.608853 305.931708a2.6 2.6 0 1 0 0.665057-5.157296 2.6 2.6 0 1 0-0.665057 5.157296Z" fill="#686767" p-id="2873"></path><path d="M649.588467 330.653045a2.6 2.6 0 1 0 1.458073-4.991395 2.6 2.6 0 1 0-1.458073 4.991395Z" fill="#AEAFAF" p-id="2874"></path><path d="M640.033679 266.83493a2.6 2.6 0 1 0 5.157365-0.664517 2.6 2.6 0 1 0-5.157365 0.664517Z" fill="#AEAFAF" p-id="2875"></path><path d="M689.932391 353.810289a2.6 2.6 0 1 0 3.409109-3.926573 2.6 2.6 0 1 0-3.409109 3.926573Z" fill="#686767" p-id="2876"></path><path d="M694.809372 419.168575a2.6 2.6 0 1 0 4.912426-1.705306 2.6 2.6 0 1 0-4.912426 1.705306Z" fill="#AEAFAF" p-id="2877"></path><path d="M567.616237 455.012603a2.6 2.6 0 1 0 4.991471-1.457812 2.6 2.6 0 1 0-4.991471 1.457812Z" fill="#686767" p-id="2878"></path><path d="M576.675936 532.934274a2.6 2.6 0 1 0 0.665056-5.157296 2.6 2.6 0 1 0-0.665056 5.157296Z" fill="#AEAFAF" p-id="2879"></path><path d="M596.121798 595.79243a2.6 2.6 0 1 0 0.665057-5.157296 2.6 2.6 0 1 0-0.665057 5.157296Z" fill="#AEAFAF" p-id="2880"></path><path d="M608.029455 478.019009a2.6 2.6 0 1 0 4.991471-1.457812 2.6 2.6 0 1 0-4.991471 1.457812Z" fill="#686767" p-id="2881"></path><path d="M582.489375 349.249977a2.6 2.6 0 1 0 3.409109-3.926573 2.6 2.6 0 1 0-3.409109 3.926573Z" fill="#686767" p-id="2882"></path><path d="M594.344087 223.215846a2.6 2.6 0 1 0 1.458073-4.991395 2.6 2.6 0 1 0-1.458073 4.991395Z" fill="#AEAFAF" p-id="2883"></path><path d="M563.225191 219.282032a2.6 2.6 0 1 0 1.458073-4.991394 2.6 2.6 0 1 0-1.458073 4.991394Z" fill="#AEAFAF" p-id="2884"></path><path d="M566.351055 319.167141a2.6 2.6 0 1 0 1.458073-4.991395 2.6 2.6 0 1 0-1.458073 4.991395Z" fill="#AEAFAF" p-id="2885"></path><path d="M563.030335 420.236812a2.6 2.6 0 1 0 5.157365-0.664516 2.6 2.6 0 1 0-5.157365 0.664516Z" fill="#AEAFAF" p-id="2886"></path><path d="M561.931208 282.738425a2.6 2.6 0 1 0 5.157366-0.664517 2.6 2.6 0 1 0-5.157366 0.664517Z" fill="#AEAFAF" p-id="2887"></path><path d="M611.894479 369.659167a2.6 2.6 0 1 0 3.409109-3.926573 2.6 2.6 0 1 0-3.409109 3.926573Z" fill="#686767" p-id="2888"></path><path d="M616.739009 435.170322a2.6 2.6 0 1 0 4.912427-1.705306 2.6 2.6 0 1 0-4.912427 1.705306Z" fill="#AEAFAF" p-id="2889"></path><path d="M635.543253 527.318106a2.6 2.6 0 1 0 3.409109-3.926573 2.6 2.6 0 1 0-3.409109 3.926573Z" fill="#686767" p-id="2890"></path><path d="M568.016717 654.578129a2.6 2.6 0 1 0 4.912426-1.705306 2.6 2.6 0 1 0-4.912426 1.705306Z" fill="#AEAFAF" p-id="2891"></path></svg>